<svg xmlns="http://www.w3.org/2000/svg" width="853" height="852" fill="none" style="display:block"><path fill="url(&quot;#a&quot;)" d="m512.09 724.824-43.084 98.679c-16.562 37.931-69.052 37.931-85.613 0l-43.085-98.679c-38.342-87.818-107.355-157.72-193.44-195.932l-118.59-52.641c-37.704-16.736-37.704-71.586 0-88.322l114.886-50.997c88.299-39.195 158.55-111.688 196.237-202.501l43.643-105.162c16.195-39.025 70.115-39.025 86.311 0l43.643 105.163c37.687 90.812 107.937 163.305 196.236 202.5l114.887 50.997c37.704 16.736 37.704 71.586 0 88.322L705.53 528.892c-86.084 38.212-155.097 108.114-193.44 195.932Z"/><defs><radialGradient id="a" cx="0" cy="0" r="1" gradientTransform="rotate(78.858 46.097 642.366) scale(665.5 665.824)" gradientUnits="userSpaceOnUse"><stop stop-color="#1BA1E3"/><stop offset="0" stop-color="#1BA1E3"/><stop offset=".3" stop-color="#5489D6"/><stop offset=".546" stop-color="#9B72CB"/><stop offset=".825" stop-color="#D96570"/><stop offset="1" stop-color="#F49C46"/></radialGradient></defs></svg>