<svg xmlns="http://www.w3.org/2000/svg" width="32" height="33" fill="none" style="display:block"><path fill="#22B8CD" fill-rule="evenodd" d="m5.95 0 9.164 8.442V.02h1.784v8.46L26.102 0v9.626h3.778v13.883h-3.767v8.572l-9.215-8.097v8.19h-1.784v-8.056l-9.153 8.06V23.51H2.182V9.625h3.769V0Zm7.82 11.387H3.965v10.36h1.993V18.48l7.81-7.093Zm-6.025 7.874v8.986l7.369-6.49v-9.189l-7.37 6.693Zm9.204 2.41V12.56l7.371 6.693v4.256h.01v4.647l-7.381-6.485Zm9.164.077h1.984v-10.36h-9.73l7.746 7.018v3.342ZM24.318 9.626V4.053l-6.049 5.573h6.049Zm-10.535 0H7.734V4.053l6.049 5.573Z" clip-rule="evenodd"/></svg>