<?xml version="1.0"?><svg version="1.2" baseProfile="tiny-ps" viewBox="0 0 300 300" xmlns="http://www.w3.org/2000/svg" xmlns:xlink="http://www.w3.org/1999/xlink"><title>firstskout</title><g><g fill="#fffeff" transform="matrix(.1 0 0 -.1 0 300)"><path d="M0 1500V0h3000v3000H0V1500z"/></g><g fill="#d2c9da" transform="matrix(.1 0 0 -.1 0 300)"><path d="m1653 1683-23-4v-329h60v90h8c4 0 28-20 52-45l44-45h79l-52 54c-28 30-51 59-51 63 0 5 20 29 45 53s45 48 45 52v8h-63l-51-47-51-48-3 103-3 102-7-1c-4-1-17-4-29-6zm-1277-19-16-15v-299h60v140h171l6 15c9 25-3 29-92 29h-85v96h200v50H391l-15-16zm286 7-14-8 4-19 3-19 23-3 22-3 6 15 6 16-12 15c-14 17-20 18-38 6zm718 2c-8-3-27-17-42-31l-28-26v-64l29-25 30-24 70-18 70-17 11-13 10-12-6-16c-11-29-95-36-162-13-45 16-52 13-52-20v-23l23-13 22-12 87-1h86l29 21 28 21 9 36 9 36-16 25c-22 33-57 51-129 65l-56 12-12 15-12 14 13 16 13 16 71-4c38-3 78-8 88-13l18-8-3 34-3 33-25 7c-30 8-149 10-170 2zm-222-40-18-4v-49h-30v-50h30v-72c0-40 4-78 8-84 18-28 78-42 116-28l16 6v45l-37-1-38-1-3 68-3 67h82l-3 23-3 22-37 3-38 3v59l-12-1c-7-1-21-3-30-6zm1340-4-18-10v-39h-30v-50h28l4-76 3-76 24-19 23-19h28c16 0 35 3 44 6l16 6v45l-27-5-26-5-14 18-13 19v106h80v50h-80v60h-12c-7 0-21-5-30-11zm-563-38c-16-10-39-28-49-40l-20-22-4-58-4-58 36-41 36-40 43-11 43-10 40 10 39 11 32 34 31 34 7 31 7 31-6 33c-4 18-13 38-21 45l-15 12-15-12-15-12 10-18c13-25 13-63-2-95l-12-26-27-15-28-14h-69l-31 26-30 25-7 33-6 34 16 30c9 17 26 38 38 46l22 16h72l22-16 23-16 14 12c22 18 19 28-15 45l-29 15h-96l-30-19zM650 1464v-115l28 3 27 3 2 90c2 50 1 100-2 113l-5 22h-50v-116zm90 1v-115h60v149l22 15c12 9 30 16 39 16h17l5 19c3 11 2 22-1 25-10 10-48 6-60-6l-12-12-12 12c-7 7-22 12-35 12h-23v-115zm186 94-26-20v-49l19-19 19-19 40-7c22-3 47-12 56-18l16-12-8-13-9-13-29-1c-16-1-46 1-67 6l-39 7 4-23 3-22 38-9 38-9 44 7 45 6 15 22c8 12 15 32 15 44v22l-21 20-21 19-36 7c-20 4-45 11-55 17l-19 10 16 16 16 16 50-10c54-11 60-10 60 17v17l-22 6c-13 3-44 6-69 6h-46l-27-21zm1264-63v-85l11-25 12-25 28-12 29-12 38 8c20 3 54 6 75 5l37-1v231h-60v-158l-14-11-15-12-33 3-33 3-5 85-5 85-32 3-33 3v-85zm-235 29-25-24v-72l25-24 24-25h33l33 1 16 12c21 16 39 51 39 77v22l-29 29-29 29h-63l-24-25zm73-34 14-8-4-24-3-24h-38l-10 17-11 16 13 16c15 18 21 19 39 7z"/></g><g fill="#9a9aa0" transform="matrix(.1 0 0 -.1 0 300)"><path d="M1384 1669c-17-5-39-18-49-29l-19-21v-68l17-19 18-20 62-16c34-10 74-22 90-28l27-10v-37l-21-12-22-11-61 5c-33 3-71 8-82 12l-21 7-6-24-6-23 7-7c4-4 32-12 62-18l55-11 49 7 48 6 31 28 31 27-1 39-1 38-29 23-28 23-58 11-58 12-21 17-21 17 6 16 6 16 35 6 34 7 44-10c24-5 50-11 58-13l15-4 3 27 3 27-38 10c-45 13-116 13-159 0zm246-154v-165h60v100h8c4 0 27-23 52-51l45-51 35 4 35 3-54 58-55 58 49 49 49 50h-70l-39-40c-21-22-43-40-47-40h-8v190h-60v-165zM370 1650l-11-20 3-137 3-138h50l3 68 3 67h169v40H420v100h200v40H381l-11-20zm283 4-6-16 14-9c21-13 36-11 43 7 8 21-1 34-25 34h-20l-6-16zm510-25-23-8v-51h-30v-40h30l1-57c1-32 4-69 8-83l7-25 27-13 27-13 35 7 35 6v37l-37 3-38 3-3 67-3 67 38 3 38 3 3 18 3 17h-81v29c0 36-8 41-37 30zm1350 3-23-3v-51l-20-5-20-5v-30l20-5 19-5 3-81 3-82 27-13 28-13 35 7 35 6v37l-37 3-38 3-3 68-3 67h81v40h-79l-3 33-3 32-22-3zm-571-39-33-16-20-29-21-29-5-38-5-38 17-37 17-36 30-22 30-21 44-5 44-5 30 13c16 7 44 28 60 47l30 34v44c0 24-5 56-10 71l-11 27-15-14-14-15 11-32 11-32-19-37-18-38-38-19-39-19-37 12c-21 6-45 19-55 30l-17 19-6 36-6 36 13 29c13 33 41 54 82 65l28 6 36-15c36-15 54-13 54 6 0 15-64 39-102 39h-33l-33-17zm-1117-29-30-15-3 10-4 11h-48v-221l28 3 27 3 3 75 3 75 16 13c9 6 27 12 40 12h23v50h-12c-7 0-26-7-43-16zm115 3-25-12-10-29-10-28 27-23 27-23 40-7 40-7 13-15 12-15-19-15-20-14-44 6c-24 4-50 9-57 12l-14 5v-41l42-12 42-11 40 9 39 8 20 27 20 27-11 26-12 25-22 9c-13 5-42 14-66 21l-43 11 3 17 4 17 61-1 62-1 5 14 6 14-26 9c-35 14-94 12-124-3zm-290-107v-110h50v220h-50v-110zm1542 20 4-91 22-21 22-22 42 1c24 1 64 2 91 3l47 1v219h-60v-150l-25-16-25-16-24 6-24 6-6 22c-3 13-6 51-6 86v62h-62l4-90zm-199 62-23-3-20-26-20-26v-46l24-27 23-28h72l21 19 20 18v34c0 19-4 43-10 53l-10 18-27 9c-16 5-38 7-50 5zm48-58 13-16-11-16-10-17h-48l-3 18c-2 10-1 25 2 33l5 14h39l13-16z"/></g><g fill="#c964ed" transform="matrix(.1 0 0 -.1 0 300)"><path d="M1385 1665c-22-8-45-22-52-32-16-20-17-67-3-93l10-19 58-17c31-9 73-22 92-28l35-12v-49l-29-14-30-14-55 11c-31 6-64 14-74 18l-19 7 4-29 3-28 25-7c14-4 56-7 93-8l68-1 29 15c35 18 50 43 50 83v29l-23 21-23 22-80 22-79 23-3 22-3 22 22 11 22 12 51-6c28-3 62-7 76-8l25-3 3 21 3 22-23 5c-13 4-48 9-78 12l-55 5-40-15zm250 3c-3-8-4-81-3-163l3-150h50l3 48 3 47h8c4 0 29-22 55-50l47-50h60l-52 60-53 61 49 49 49 50h-60l-39-40c-21-22-45-40-52-40h-12l-3 93-3 92-23 3-22 3-5-13zm-1258-5c-4-3-7-75-7-160v-153h39l3 73 3 72 88 3 87 3v29H409l3 53 3 52 103 3 102 3v29H502c-65 0-122-3-125-7zm285-15 3-23h30l3 23 3 22h-42l3-22zm488-48v-30h-40v-28l20-5 20-5v-151l16-15 15-16h89v42l-24-6-25-6-16 16-16 16 3 62 3 61 38 3 37 3v28l-37 3-38 3-3 28-3 27h-39v-30zm1347 23c-4-3-7-17-7-30v-23h-30v-30h30v-157l18-16 19-17h93v40l-28-2c-15-1-33 1-40 6l-12 7v139h80v30h-80v60h-18c-10 0-22-3-25-7zm-555-30-33-16-20-29-21-29-5-38-5-38 17-37 17-36 30-22 30-21 44-5 44-5 30 13c16 7 44 28 60 47l30 34v44c0 24-5 56-10 71l-11 27-15-14-14-15 11-32 11-32-19-37-18-38-38-19-39-19-37 12c-21 6-45 19-55 30l-17 19-6 36-6 36 13 29c13 33 41 54 82 65l28 6 36-15c36-15 54-13 54 6 0 15-64 39-102 39h-33l-33-17zm-999-27-33-15v-69l13-10c6-6 37-17 67-24l55-14 3-22 3-21-26-7c-23-6-60-3-104 8l-15 3-3-16-4-16 23-7c13-3 46-6 73-6h51l22 16 22 15v68l-21 12c-12 6-43 16-68 23l-46 11v40h125v12c0 17-12 22-62 28l-43 5-32-14zm-289-103 2-108 22-3 22-3v221h-47l1-107zm96-3v-110h40v136l15 21 15 21 30 7 30 7v28h-23c-12 0-33-7-45-16l-22-15v31h-40v-110zm1450 20v-90l20-20 20-20h41c22 0 50 5 61 11l21 11 7-12 7-12 19 4 19 3 3 108 3 107h-61v-159l-19-11c-11-5-31-10-45-10h-25l-11 19-10 20v141h-50v-90zm-207 62-23-3-20-26-20-26v-46l24-27 23-28h72l21 19 20 18v34c0 19-4 43-10 53l-10 18-27 9c-16 5-38 7-50 5zm48-58 13-16-11-16-10-17h-48l-3 18c-2 10-1 25 2 33l5 14h39l13-16z"/></g><g fill="#57565f" transform="matrix(.1 0 0 -.1 0 300)"><path d="M1385 1665c-22-8-45-22-52-32-16-20-17-67-3-93l10-19 58-17c31-9 73-22 92-28l35-12v-49l-29-14-30-14-55 11c-31 6-64 14-74 18l-19 7 4-29 3-28 25-7c14-4 56-7 93-8l68-1 29 15c35 18 50 43 50 83v29l-23 21-23 22-80 22-79 23-3 22-3 22 22 11 22 12 51-6c28-3 62-7 76-8l25-3 3 21 3 22-23 5c-13 4-48 9-78 12l-55 5-40-15zm250 3c-3-8-4-81-3-163l3-150h50l3 48 3 47h8c4 0 29-22 55-50l47-50h60l-52 60-53 61 49 49 49 50h-60l-39-40c-21-22-45-40-52-40h-12l-3 93-3 92-23 3-22 3-5-13zm-1258-5c-4-3-7-75-7-160v-153h39l3 73 3 72 88 3 87 3v29H409l3 53 3 52 103 3 102 3v29H502c-65 0-122-3-125-7zm285-15 3-23h30l3 23 3 22h-42l3-22zm488-48v-30h-40v-28l20-5 20-5v-151l16-15 15-16h89v42l-24-6-25-6-16 16-16 16 3 62 3 61 38 3 37 3v28l-37 3-38 3-3 28-3 27h-39v-30zm1347 23c-4-3-7-17-7-30v-23h-30v-30h30v-157l18-16 19-17h93v40l-28-2c-15-1-33 1-40 6l-12 7v139h80v30h-80v60h-18c-10 0-22-3-25-7zm-1554-57-33-15v-69l13-10c6-6 37-17 67-24l55-14 3-22 3-21-26-7c-23-6-60-3-104 8l-15 3-3-16-4-16 23-7c13-3 46-6 73-6h51l22 16 22 15v68l-21 12c-12 6-43 16-68 23l-46 11v40h125v12c0 17-12 22-62 28l-43 5-32-14zm-289-103 2-108 22-3 22-3v221h-47l1-107zm96-3v-110h40v136l15 21 15 21 30 7 30 7v28h-23c-12 0-33-7-45-16l-22-15v31h-40v-110zm1450 20v-90l20-20 20-20h41c22 0 50 5 61 11l21 11 7-12 7-12 19 4 19 3 3 108 3 107h-61v-159l-19-11c-11-5-31-10-45-10h-25l-11 19-10 20v141h-50v-90z"/></g><g fill="#1f1d2a" transform="matrix(.1 0 0 -.1 0 300)"><path d="m1658 1672-18-3v-309h40v90h32l40-45 40-45h62l-53 54-54 55 47 48 48 48-22 3-21 4-50-47-51-47-8 8-9 9-3 90-3 90-17-3zm-1276-14-12-12v-286h40v140h182l-4 13-5 12-84 1-84 2-3 56-3 56h211v30H394l-12-12zm285 6c-4-4-7-13-7-21v-13h41l-3 17c-3 18-20 27-31 17zm713-1c-8-3-25-15-37-26l-23-20v-64l20-18 19-17 77-22 77-21 13-21 14-20-13-18-14-19-49-4-49-4-47 14-48 15v-48l28-7c15-5 59-8 98-8h71l26 14 26 14 11 28 12 29-6 25-7 26-30 18c-17 10-57 24-89 30l-60 12-15 21-15 22 17 19 17 18 66-3c36-2 73-8 83-12l17-8v50l-22 6c-28 7-147 7-168-1zm-217-40-13-5v-48h-30v-30h30v-160l24-15 25-16 33 3 33 3 3 16 3 16-26-4-25-5-15 12-15 12v138h80v30h-80v30c0 30-4 33-27 23zm1340 0-13-5v-48h-30v-30h28l4-81 3-81 20-14 19-14h27c34 0 59 9 59 21v9h-71l-6 17c-4 10-7 45-7 78l-1 60 38 3 37 3v28l-37 3-38 3v48l-10 3c-6 1-16 0-22-3zM660 1466v-106h41l-3 102-3 103-17 3-18 3v-105zm90-1v-105h40v135l10 15c5 8 24 19 41 25 18 6 35 17 37 23l4 12h-50l-12-15c-7-8-16-15-21-15s-9 7-9 15v15h-40v-105zm182 89-22-15v-46l18-15c9-9 33-19 52-23s43-12 53-17l18-9-3-22-3-22H910v-24l44-6 44-7 31 7c17 4 38 13 46 22l15 14v47l-16 13c-9 8-42 21-73 29l-56 15-3 17-3 18 28 11 28 11 43-10 42-9v12c0 18-23 25-79 25h-47l-22-16zm1268-69v-86l26-25 25-26 42 7c23 3 59 6 80 6l37-1v210h-40v-147l-18-16-19-17h-59l-12 12-12 12v156h-50v-85z"/></g></g></svg>