<?xml version="1.0" standalone="no"?>
<!DOCTYPE svg PUBLIC "-//W3C//DTD SVG 20010904//EN"
 "http://www.w3.org/TR/2001/REC-SVG-20010904/DTD/svg10.dtd">
<svg version="1.0" xmlns="http://www.w3.org/2000/svg"
 width="1280.000000pt" height="500.000000pt" viewBox="0 0 1280.000000 500.000000"
 preserveAspectRatio="xMidYMid meet">

<g transform="translate(0.000000,500.000000) scale(0.100000,-0.100000)"
fill="#000000" stroke="none">
<path d="M4293 2900 c-56 -12 -128 -55 -154 -92 -69 -97 -29 -223 88 -278 25
-12 105 -35 177 -52 72 -16 139 -34 151 -40 90 -47 86 -132 -9 -168 -45 -17
-165 -23 -233 -12 -34 6 -90 22 -124 36 -35 14 -65 24 -67 22 -2 -2 -6 -29 -9
-59 -5 -53 -5 -56 24 -70 58 -31 190 -50 302 -45 164 8 262 54 302 143 37 80
19 167 -47 225 -49 43 -76 53 -245 94 -158 39 -189 57 -189 111 0 64 68 90
209 82 84 -5 120 -12 227 -43 19 -5 22 -1 27 48 6 59 0 69 -53 88 -43 15 -320
22 -377 10z"/>
<path d="M1891 2874 c-20 -26 -21 -37 -21 -370 l0 -344 55 0 55 0 0 170 0 170
210 0 210 0 0 35 0 35 -210 0 -210 0 0 125 0 125 243 2 242 3 0 35 0 35 -277
3 -276 2 -21 -26z"/>
<path d="M2566 2884 c-34 -33 -7 -94 42 -94 27 0 62 33 62 59 0 28 -27 51 -60
51 -16 0 -36 -7 -44 -16z"/>
<path d="M3740 2801 c-22 -6 -26 -13 -30 -66 l-5 -60 -42 -3 c-43 -3 -43 -3
-43 -43 l0 -39 45 0 45 0 0 -175 c0 -204 6 -225 73 -256 74 -33 217 -18 225
24 2 10 1 29 -2 42 -5 21 -8 22 -46 13 -22 -6 -55 -7 -74 -4 -60 11 -66 31
-66 203 l0 152 93 3 92 3 0 35 0 35 -90 5 -90 5 -3 68 c-3 66 -3 67 -30 66
-15 -1 -38 -4 -52 -8z"/>
<path d="M6900 2801 c-23 -6 -25 -12 -28 -69 l-3 -62 -39 0 c-40 0 -40 0 -40
-40 l0 -40 40 0 40 0 1 -167 c0 -191 8 -228 56 -256 43 -25 125 -32 196 -17
l57 11 0 43 0 43 -74 -5 c-65 -4 -76 -2 -95 17 -20 20 -21 31 -21 176 l0 155
95 0 95 0 0 40 0 40 -95 0 -95 0 0 70 0 70 -32 -1 c-18 -1 -44 -4 -58 -8z"/>
<path d="M5687 2750 c-54 -9 -123 -40 -154 -69 -11 -11 -23 -18 -26 -15 -8 8
-66 -71 -88 -122 -25 -58 -31 -160 -10 -173 9 -6 10 -10 1 -13 -8 -2 -8 -14 3
-46 34 -98 117 -178 217 -208 62 -19 196 -22 213 -5 6 6 19 11 30 11 58 0 205
137 190 176 -3 8 0 14 6 14 18 0 34 82 27 148 -5 61 -21 107 -51 146 -15 19
-15 19 -40 -4 -28 -27 -30 -33 -12 -52 12 -13 13 -16 16 -68 1 -30 16 -41 24
-17 2 6 2 1 0 -13 -3 -14 -9 -28 -15 -31 -5 -3 -8 -22 -7 -41 2 -23 -4 -43
-16 -60 -11 -14 -27 -36 -35 -48 -69 -102 -273 -130 -371 -50 -24 19 -44 28
-56 24 -13 -4 -15 -3 -4 4 11 8 10 14 -4 36 -10 15 -20 24 -23 21 -3 -3 0 -11
6 -17 7 -7 12 -17 12 -22 -1 -21 -24 29 -26 54 -4 70 -18 131 -25 118 -6 -9
-9 -9 -9 -1 0 6 5 15 10 18 6 3 15 27 21 52 18 68 98 146 174 168 94 28 183
15 257 -37 15 -11 21 -9 39 9 29 29 20 47 -39 77 -40 20 -160 50 -182 45 -3
-1 -26 -5 -53 -9z m140 -24 c2 -1 -31 -3 -72 -4 -47 -1 -75 3 -75 9 0 7 15 8
41 4 28 -5 39 -4 35 3 -4 7 6 7 31 0 21 -5 39 -11 40 -12z m-172 -6 c-11 -5
-29 -8 -40 -8 -16 0 -15 2 5 8 34 11 60 11 35 0z m255 -10 c11 -6 24 -19 30
-30 8 -16 7 -19 -10 -17 -22 1 -27 13 -7 20 6 3 -4 12 -23 20 -19 9 -29 16
-22 17 7 0 22 -5 32 -10z m-207 -7 c-7 -2 -21 -2 -30 0 -10 3 -4 5 12 5 17 0
24 -2 18 -5z m96 3 c-2 -2 -17 -6 -34 -10 -22 -5 -26 -4 -15 4 14 9 59 15 49
6z m-172 -17 c-11 -7 -23 -7 -28 -2 -5 5 3 9 19 11 24 1 25 0 9 -9z m-37 -20
c0 -4 16 -1 36 7 20 8 33 10 29 5 -3 -6 -12 -11 -19 -11 -7 0 -30 -11 -50 -25
-37 -25 -47 -25 -21 2 12 12 13 18 4 29 -10 12 -9 13 5 8 9 -3 16 -10 16 -15z
m-50 -19 c-21 -16 -22 -21 -10 -29 12 -8 12 -13 0 -35 -7 -14 -16 -24 -19 -21
-2 3 1 11 7 17 18 18 15 33 -3 18 -13 -11 -18 -11 -28 0 -9 10 -9 11 1 6 21
-12 33 3 21 26 -6 11 -7 18 -1 14 5 -3 15 1 22 9 7 8 18 15 24 15 6 0 0 -9
-14 -20z m400 -10 c0 -5 -2 -10 -4 -10 -3 0 -8 5 -11 10 -3 6 -1 10 4 10 6 0
11 -4 11 -10z m-445 -80 c3 -5 1 -10 -4 -10 -6 0 -11 5 -11 10 0 6 2 10 4 10
3 0 8 -4 11 -10z m525 6 c0 -2 -7 -6 -15 -10 -8 -3 -15 -1 -15 4 0 6 7 10 15
10 8 0 15 -2 15 -4z m-563 -28 c-3 -8 -6 -5 -6 6 -1 11 2 17 5 13 3 -3 4 -12
1 -19z m628 -67 c3 -5 1 -12 -5 -16 -5 -3 -10 1 -10 9 0 18 6 21 15 7z m-626
-149 c-6 -18 -15 -32 -19 -32 -10 0 -23 50 -15 58 3 3 5 -2 5 -12 0 -16 1 -16
16 -2 8 9 12 22 8 28 -5 10 -4 10 5 2 8 -8 8 -18 0 -42z m11 -47 c-7 -9 -10
-19 -6 -22 4 -4 11 -2 15 5 5 8 8 0 8 -19 l0 -31 -18 23 c-22 28 -24 45 -6 52
20 8 20 8 7 -8z m573 -12 c-5 -12 -7 -12 -14 -1 -13 20 -11 28 5 22 8 -3 12
-12 9 -21z m-52 -41 c0 -14 2 -13 10 3 9 20 9 20 6 0 -2 -16 -10 -20 -39 -20
-31 -1 -35 1 -25 13 7 9 13 10 15 3 7 -20 24 -12 19 9 -3 11 -1 18 4 14 5 -3
9 -13 10 -22z m-471 -17 c0 -5 -5 -3 -10 5 -5 8 -10 20 -10 25 0 6 5 3 10 -5
5 -8 10 -19 10 -25z m50 -26 c-11 -8 -12 -12 -2 -16 6 -2 12 -9 12 -15 0 -6
-9 -3 -20 7 -22 20 -18 35 8 35 15 0 15 -2 2 -11z m40 -3 c0 -3 -4 -8 -10 -11
-5 -3 -10 -1 -10 4 0 6 5 11 10 11 6 0 10 -2 10 -4z m287 -11 c0 -10 -6 -14
-14 -10 -8 3 -18 5 -21 6 -4 0 2 4 13 9 11 5 20 9 21 9 0 1 1 -6 1 -14z m31
-19 c-7 -8 -15 -12 -17 -11 -5 6 10 25 20 25 5 0 4 -6 -3 -14z m-140 -3 c-10
-2 -26 -2 -35 0 -10 3 -2 5 17 5 19 0 27 -2 18 -5z m-81 -9 c-3 -3 -12 -4 -19
-1 -8 3 -5 6 6 6 11 1 17 -2 13 -5z m182 -3 c9 -6 2 -8 -20 -6 -40 3 -57 -4
-38 -16 10 -6 8 -9 -8 -9 -27 0 -31 26 -5 33 29 8 56 7 71 -2z m-176 -28 c-7
-2 -19 -2 -25 0 -7 3 -2 5 12 5 14 0 19 -2 13 -5z"/>
<path d="M2999 2671 c-39 -12 -71 -31 -101 -59 l-28 -26 0 43 0 42 -52 -3
c-29 -2 -52 -6 -50 -10 1 -5 2 -118 2 -253 l0 -245 49 0 49 0 4 158 c3 136 6
162 23 192 26 44 77 70 138 70 l47 0 0 50 c0 48 -1 50 -27 49 -16 0 -40 -4
-54 -8z"/>
<path d="M3260 2671 c-86 -26 -120 -68 -120 -147 0 -82 55 -117 243 -154 68
-14 100 -39 95 -77 -6 -48 -46 -66 -145 -65 -52 0 -106 7 -132 16 -65 24 -71
22 -71 -24 0 -39 0 -39 58 -57 39 -12 88 -18 157 -18 84 1 108 5 149 25 27 13
57 37 67 54 24 39 25 122 3 154 -23 33 -85 61 -187 83 -112 25 -137 39 -137
80 0 25 6 32 38 46 45 19 178 13 234 -10 l36 -15 4 39 c2 22 -1 44 -7 49 -31
26 -223 40 -285 21z"/>
<path d="M5035 2671 c-78 -20 -143 -70 -178 -136 -31 -58 -31 -193 0 -252 70
-131 276 -181 456 -111 28 11 33 28 21 85 l-6 29 -56 -19 c-77 -26 -198 -21
-239 9 -93 70 -88 220 9 279 42 25 180 27 246 2 42 -16 42 -16 42 7 0 13 3 37
6 53 5 25 2 31 -23 42 -32 15 -233 24 -278 12z"/>
<path d="M2550 2415 l0 -255 55 0 55 0 0 255 0 255 -55 0 -55 0 0 -255z"/>
<path d="M6187 2663 c-11 -10 -8 -301 3 -368 18 -110 69 -149 195 -150 69 0
88 4 134 28 63 32 61 32 61 7 0 -18 7 -20 60 -20 l60 0 0 255 0 255 -60 0 -60
0 0 -155 c0 -112 -4 -165 -14 -190 -19 -45 -78 -75 -146 -75 -44 0 -56 5 -81
29 l-29 29 0 181 0 181 -58 0 c-32 0 -62 -3 -65 -7z"/>
<path d="M5675 2590 c3 -5 0 -7 -8 -4 -19 7 -28 -8 -16 -26 8 -13 10 -13 19 0
7 12 9 11 8 -6 -2 -16 -8 -20 -30 -19 -15 1 -31 5 -36 10 -4 4 3 4 15 1 18 -6
22 -4 17 8 -3 9 -9 16 -13 16 -10 0 -56 -50 -55 -58 1 -4 -2 -17 -7 -30 -5
-13 -9 -43 -9 -68 0 -35 3 -44 18 -44 14 0 14 -2 3 -9 -15 -10 -8 -25 31 -71
49 -58 151 -71 229 -31 53 28 70 49 62 79 -4 17 -2 21 10 17 19 -8 32 52 16
71 -8 10 -9 14 0 14 16 0 14 18 -10 67 -23 47 -30 51 -53 27 -9 -8 -16 -14
-17 -12 0 2 -2 13 -3 25 -2 18 0 20 11 11 7 -6 16 -8 20 -4 8 7 -29 36 -39 30
-4 -2 -9 0 -13 6 -3 5 -40 10 -81 10 -47 0 -73 -4 -69 -10z m-50 -115 c-9 -27
-14 -33 -15 -18 0 12 -3 29 -6 37 -5 12 -2 15 10 10 10 -4 16 -1 16 7 0 7 2
10 5 8 2 -3 -2 -23 -10 -44z m182 20 c42 -29 41 -123 0 -149 -12 -8 -44 -16
-72 -19 -27 -2 -44 -2 -37 0 10 4 8 9 -7 20 -26 18 -41 70 -29 102 20 56 96
80 145 46z m72 -54 c-15 -5 -22 6 -14 19 6 9 10 9 16 -1 5 -8 4 -15 -2 -18z
m-302 -23 c-3 -8 -6 -5 -6 6 -1 11 2 17 5 13 3 -3 4 -12 1 -19z m41 -43 c7
-15 8 -27 2 -30 -6 -4 -10 2 -10 12 0 11 -5 24 -12 31 -7 7 -8 12 -2 12 6 0
16 -11 22 -25z m27 15 c3 -5 1 -10 -4 -10 -6 0 -11 5 -11 10 0 6 2 10 4 10 3
0 8 -4 11 -10z m19 -35 c3 -8 1 -15 -3 -15 -5 0 -11 7 -15 15 -3 8 -1 15 3 15
5 0 11 -7 15 -15z m206 -16 c-7 -11 -14 -18 -17 -15 -3 3 0 12 7 21 18 21 23
19 10 -6z m-52 -15 c-16 -8 -28 -19 -28 -24 0 -6 -4 -10 -10 -10 -19 0 -5 25
20 37 36 17 50 15 18 -3z m72 -9 c-7 -9 -15 -13 -17 -11 -7 7 7 26 19 26 6 0
6 -6 -2 -15z m-243 -1 c-3 -3 -12 -4 -19 -1 -8 3 -5 6 6 6 11 1 17 -2 13 -5z
m110 0 c-3 -3 -12 -4 -19 -1 -8 3 -5 6 6 6 11 1 17 -2 13 -5z m90 -24 c-2 -11
-7 -23 -12 -27 -4 -5 -5 -2 -1 5 5 7 1 12 -11 13 -16 1 -16 2 1 6 15 4 16 7 5
14 -11 7 -11 9 3 9 12 0 17 -6 15 -20z m-124 -37 c-7 -2 -19 -2 -25 0 -7 3 -2
5 12 5 14 0 19 -2 13 -5z"/>
</g>
</svg>
